<mxfile host="app.diagrams.net" modified="2023-02-02T04:33:02.741Z" agent="5.0 (Macintosh; Intel Mac OS X 10_15_7) AppleWebKit/537.36 (KHTML, like Gecko) Chrome/109.0.0.0 Safari/537.36" etag="3V-5xFQ5YiT9jvhCiWYg" version="20.8.15" type="github">
  <diagram name="Page-1" id="cshPPHZV9u52kg1sXKuc">
    <mxGraphModel dx="1860" dy="1875" grid="1" gridSize="10" guides="1" tooltips="1" connect="1" arrows="1" fold="1" page="1" pageScale="1" pageWidth="850" pageHeight="1100" math="0" shadow="0">
      <root>
        <mxCell id="0" />
        <mxCell id="1" parent="0" />
        <mxCell id="nr3VpnChnR80tK6vj62D-1" value="" style="shape=image;verticalLabelPosition=bottom;labelBackgroundColor=default;verticalAlign=top;aspect=fixed;imageAspect=0;image=https://static.platzi.com/media/user_upload/UntitledDiagram-a6f06988-b96d-471d-96fd-4eb9af4431b1.jpg;" vertex="1" parent="1">
          <mxGeometry x="7" y="34" width="795.6" height="306" as="geometry" />
        </mxCell>
        <mxCell id="nr3VpnChnR80tK6vj62D-3" value="" style="shape=image;verticalLabelPosition=bottom;labelBackgroundColor=default;verticalAlign=top;aspect=fixed;imageAspect=0;image=https://raw.githubusercontent.com/JulioCesarArbieto/JulioCesarArbieto/master/ArquitecturaAWS-CameraReview.png;imageBackground=#FFFFFF;" vertex="1" parent="1">
          <mxGeometry x="880" y="20" width="635.11" height="320" as="geometry" />
        </mxCell>
      </root>
    </mxGraphModel>
  </diagram>
</mxfile>
